<svg width="25" height="25" viewBox="0 0 25 25" fill="none" xmlns="http://www.w3.org/2000/svg">
<g clip-path="url(#clip0_4_265)">
<path d="M4.16675 6.24996C4.16675 5.69743 4.38624 5.16752 4.77694 4.77682C5.16764 4.38612 5.69755 4.16663 6.25008 4.16663H18.7501C19.3026 4.16663 19.8325 4.38612 20.2232 4.77682C20.6139 5.16752 20.8334 5.69743 20.8334 6.24996V18.75C20.8334 19.3025 20.6139 19.8324 20.2232 20.2231C19.8325 20.6138 19.3026 20.8333 18.7501 20.8333H6.25008C5.69755 20.8333 5.16764 20.6138 4.77694 20.2231C4.38624 19.8324 4.16675 19.3025 4.16675 18.75V6.24996Z" stroke="#080808" stroke-width="1.7" stroke-linecap="round" stroke-linejoin="round"/>
<path d="M4.16675 13.5416H7.29175L10.4167 16.6666H14.5834L17.7084 13.5416H20.8334" stroke="#080808" stroke-width="1.7" stroke-linecap="round" stroke-linejoin="round"/>
</g>
<defs>
<clipPath id="clip0_4_265">
<rect width="25" height="25" fill="white"/>
</clipPath>
</defs>
</svg>
