<svg width="25" height="20" viewBox="0 0 25 20" fill="none" xmlns="http://www.w3.org/2000/svg">
<path fill-rule="evenodd" clip-rule="evenodd" d="M12 17.8476C17.6392 17.8476 20.2481 17.1242 20.5 14.2205C20.5 11.3188 18.6812 11.5054 18.6812 7.94511C18.6812 5.16414 16.0452 2 12 2C7.95477 2 5.31885 5.16414 5.31885 7.94511C5.31885 11.5054 3.5 11.3188 3.5 14.2205C3.75295 17.1352 6.36177 17.8476 12 17.8476Z" stroke="#090909" stroke-width="1.5" stroke-linecap="round" stroke-linejoin="round"/>
<circle cx="19" cy="6" r="6" fill="#1A1D1D"/>
<path d="M19.4533 9C19.5333 9 19.5813 8.952 19.5813 8.872L19.5493 3.304C19.5493 3.224 19.5013 3.176 19.4213 3.176H18.6213C18.5573 3.176 18.5173 3.192 18.4613 3.232L16.9093 4.544C16.8453 4.592 16.8453 4.656 16.9013 4.72L17.1493 5C17.2053 5.064 17.2693 5.064 17.3333 5.016L18.7973 3.752H18.8533L18.8213 8.872C18.8213 8.952 18.8693 9 18.9493 9H19.4533Z" fill="white"/>
</svg>
