<svg width="18" height="18" viewBox="0 0 18 18" fill="none" xmlns="http://www.w3.org/2000/svg">
<path fill-rule="evenodd" clip-rule="evenodd" d="M7.40751 11.4047C4.52451 11.4047 2.06226 11.8404 2.06226 13.5864C2.06226 15.3324 4.50951 15.7839 7.40751 15.7839C10.2913 15.7839 12.7528 15.3474 12.7528 13.6022C12.7528 11.8569 10.3063 11.4047 7.40751 11.4047Z" stroke="white" stroke-width="1.5" stroke-linecap="round" stroke-linejoin="round"/>
<path fill-rule="evenodd" clip-rule="evenodd" d="M7.40745 8.91438C9.2997 8.91438 10.8335 7.38063 10.8335 5.48838C10.8335 3.59613 9.2997 2.06238 7.40745 2.06238C5.51595 2.06238 3.9822 3.59613 3.9822 5.48838C3.97545 7.37388 5.49795 8.90763 7.3842 8.91438H7.40745Z" stroke="white" stroke-width="1.5" stroke-linecap="round" stroke-linejoin="round"/>
<path d="M14.4028 6.50183V9.50933" stroke="white" stroke-width="1.5" stroke-linecap="round" stroke-linejoin="round"/>
<path d="M15.9374 8.00549H12.8699" stroke="white" stroke-width="1.5" stroke-linecap="round" stroke-linejoin="round"/>
</svg>
