<svg width="35" height="35" viewBox="0 0 35 35" fill="none" xmlns="http://www.w3.org/2000/svg">
<g clip-path="url(#clip0_4_243)">
<path d="M1.10166 14.9645L1.39283 14.6009C1.7926 14.3774 2.07275 14.028 2.36077 13.6881L11.3949 4.6099C12.5071 3.49559 13.6182 2.38338 14.7283 1.27327C16.425 -0.431249 18.2318 -0.42338 19.9222 1.29373C20.7752 2.15307 21.6314 2.99037 22.4687 3.8623C23.0857 4.49973 23.1282 5.10724 22.6261 5.56367C22.1539 5.98862 21.5889 5.89891 20.9735 5.28981C20.0984 4.42418 19.2422 3.54595 18.3546 2.68504C17.5676 1.91384 17.0545 1.91069 16.2755 2.68504C11.6934 7.25664 7.11442 11.8303 2.53862 16.4061C1.75168 17.1931 1.75168 17.6952 2.5276 18.4727C7.14432 23.0894 11.761 27.6988 16.3778 32.3008C17.0876 33.0075 17.5377 33.0106 18.2554 32.3008C22.8984 27.6788 27.5361 23.0511 32.1685 18.4176C32.8878 17.6983 32.8815 17.1962 32.1685 16.4723C31.3029 15.5956 30.4152 14.741 29.5496 13.8675C28.9531 13.2631 28.9358 12.7107 29.5276 12.0906C30.3963 11.184 31.2793 10.2885 32.1906 9.41496C32.5966 9.03093 32.6785 8.77282 32.2205 8.35102C31.2966 7.49797 30.4105 6.60086 29.5449 5.68801C29.1435 5.26463 28.8933 5.27093 28.4746 5.68801C25.2639 8.92548 22.0217 12.1409 18.8047 15.3627C17.415 16.7587 17.2875 16.7792 15.8631 15.391C15.4114 14.9535 14.955 14.5191 14.5316 14.0548C14.253 13.7494 14.0343 13.7605 13.7573 14.0406C12.761 15.0432 11.7631 16.0442 10.748 17.031C10.4175 17.3458 10.471 17.5771 10.7732 17.8762C12.7626 19.8514 14.7535 21.825 16.7099 23.8333C17.1663 24.3055 17.4165 24.2173 17.8305 23.7987C20.6162 20.9893 23.4303 18.2067 26.2224 15.402C26.6836 14.9393 27.1541 14.7189 27.7428 15.114C28.3314 15.509 28.3015 16.2488 27.6924 16.8594C24.7492 19.8078 21.804 22.7541 18.8566 25.6984C17.2906 27.2628 17.2733 27.2722 15.69 25.7094C13.2505 23.2961 10.8246 20.8697 8.41235 18.4302C7.61754 17.6259 7.62541 17.2183 8.41235 16.4392C10.0177 14.8275 11.6341 13.2232 13.2615 11.6263C13.9005 10.9967 14.3506 11.0093 15.0195 11.6389C15.6302 12.2133 16.255 12.7783 16.8074 13.4063C17.2214 13.8785 17.4669 13.7778 17.8572 13.3827C21.0522 10.1673 24.2724 6.97702 27.4736 3.7663C28.9216 2.3136 29.0397 2.29629 30.464 3.71751C31.1707 4.41788 31.8632 5.134 32.562 5.8391C33.1916 6.53476 33.8542 7.19106 34.5215 7.8458C35.1652 8.47535 35.1416 9.26229 34.512 9.90129C34.1674 10.2523 33.7676 10.5545 33.5111 10.9873C33.0389 11.4767 32.5935 11.9898 32.0946 12.4478C31.7011 12.8098 31.646 13.0774 32.0725 13.463C32.6753 14.0076 33.2435 14.5899 33.7928 15.1864C35.0629 16.562 35.1621 18.1941 33.8841 19.5523C31.7672 21.7998 29.5512 23.9592 27.3713 26.1438C24.894 28.6294 22.4136 31.1109 19.93 33.5882C18.1515 35.3651 16.5147 35.3982 14.7519 33.6402C10.1793 29.0728 5.61398 24.4949 1.05602 19.9065C0.676714 19.5256 0.286391 19.1447 0.136873 18.5986C-0.0480656 17.8502 -0.0480656 17.068 0.136873 16.3196C0.502013 15.9041 0.709766 15.3674 1.10166 14.9645Z" fill="#00468B"/>
</g>
<defs>
<clipPath id="clip0_4_243">
<rect width="35" height="34.9402" fill="white"/>
</clipPath>
</defs>
</svg>
